<svg version="1.2" xmlns="http://www.w3.org/2000/svg" viewBox="0 0 600 600" width="32" height="32">
	<title>Proyecto nuevo</title>
	<style>
		.s0 { fill: #1b1b32 } 
		.s1 { fill: #ffffff } 
	</style>
	<path id="Forma 2" class="s0" d="m301 583.4c-157.8 0-285.4-127.6-285.4-285.4 0-157.8 127.6-285.4 285.4-285.4 157.8 0 285.4 127.6 285.4 285.4 0 157.8-127.6 285.4-285.4 285.4z"/>
	<path id="Forma 1" class="s1" d="m329.7 142.7c0 0 48.6 2.5 63.9 21.1-7.3 17.7-121.2 286.6-121.2 286.6l-51.6 46.4-13.7-63.1zm-171.3 65.3h39.9l-46.4 87.8 47.1 86.4h-39.9l-47.1-87.1zm283 172.7h-39.9l46.4-87.8-47.2-86.4h39.9l47.2 87.1zm-107.4-245.3l16-36.2c0 0 31.2-3.9 62.4 23.9-2.4 5.8-12 24.1-14.5 33.4-28.5-22.7-63.9-21.1-63.9-21.1z"/>
</svg>